<?xml version="1.0" encoding="utf-8" standalone="no"?>
<!DOCTYPE svg PUBLIC "-//W3C//DTD SVG 1.1//EN"
  "http://www.w3.org/Graphics/SVG/1.1/DTD/svg11.dtd">
<svg xmlns:xlink="http://www.w3.org/1999/xlink" width="648pt" height="374.4pt" viewBox="0 0 648 374.4" xmlns="http://www.w3.org/2000/svg" version="1.1">
 <metadata>
  <rdf:RDF xmlns:dc="http://purl.org/dc/elements/1.1/" xmlns:cc="http://creativecommons.org/ns#" xmlns:rdf="http://www.w3.org/1999/02/22-rdf-syntax-ns#">
   <cc:Work>
    <dc:type rdf:resource="http://purl.org/dc/dcmitype/StillImage"/>
    <dc:date>2026-09-23T10:17:07.558576</dc:date>
    <dc:format>image/svg+xml</dc:format>
    <dc:creator>
     <cc:Agent>
      <dc:title>Matplotlib v3.11.1, https://matplotlib.org/</dc:title>
     </cc:Agent>
    </dc:creator>
   </cc:Work>
  </rdf:RDF>
 </metadata>
 <defs>
  <style type="text/css">*{stroke-linejoin: round; stroke-linecap: butt}</style>
 </defs>
 <g id="figure_1">
  <g id="patch_1">
   <path d="M 0 374.4 
L 648 374.4 
L 648 0 
L 0 0 
z
" style="fill: #ffffff"/>
  </g>
  <g id="axes_1">
   <g id="patch_2">
    <path d="M 129.6 299.52 
L 622.08 299.52 
L 622.08 97.344 
L 129.6 97.344 
z
" style="fill: #ffffff"/>
   </g>
   <g id="matplotlib.axis_1">
    <g id="xtick_1">
     <g id="line2d_1">
      <path d="M 129.6 299.52 
L 129.6 97.344 
" clip-path="url(#p272453de57)" style="fill: none; stroke: #e1e0d9; stroke-width: 0.8; stroke-linecap: square"/>
     </g>
     <g id="line2d_2"/>
     <g id="text_1">
      <text style="font-size: 10px; font-family: 'Liberation Sans'; text-anchor: middle; fill: #52514e" x="129.6" y="312.800273" transform="rotate(-0 129.6 312.800273)">0%</text>
     </g>
    </g>
    <g id="xtick_2">
     <g id="line2d_3">
      <path d="M 191.16 299.52 
L 191.16 97.344 
" clip-path="url(#p272453de57)" style="fill: none; stroke: #e1e0d9; stroke-width: 0.8; stroke-linecap: square"/>
     </g>
     <g id="line2d_4"/>
     <g id="text_2">
      <text style="font-size: 10px; font-family: 'Liberation Sans'; text-anchor: middle; fill: #52514e" x="191.16" y="312.800273" transform="rotate(-0 191.16 312.800273)">10%</text>
     </g>
    </g>
    <g id="xtick_3">
     <g id="line2d_5">
      <path d="M 252.72 299.52 
L 252.72 97.344 
" clip-path="url(#p272453de57)" style="fill: none; stroke: #e1e0d9; stroke-width: 0.8; stroke-linecap: square"/>
     </g>
     <g id="line2d_6"/>
     <g id="text_3">
      <text style="font-size: 10px; font-family: 'Liberation Sans'; text-anchor: middle; fill: #52514e" x="252.72" y="312.800273" transform="rotate(-0 252.72 312.800273)">20%</text>
     </g>
    </g>
    <g id="xtick_4">
     <g id="line2d_7">
      <path d="M 314.28 299.52 
L 314.28 97.344 
" clip-path="url(#p272453de57)" style="fill: none; stroke: #e1e0d9; stroke-width: 0.8; stroke-linecap: square"/>
     </g>
     <g id="line2d_8"/>
     <g id="text_4">
      <text style="font-size: 10px; font-family: 'Liberation Sans'; text-anchor: middle; fill: #52514e" x="314.28" y="312.800273" transform="rotate(-0 314.28 312.800273)">30%</text>
     </g>
    </g>
    <g id="xtick_5">
     <g id="line2d_9">
      <path d="M 375.84 299.52 
L 375.84 97.344 
" clip-path="url(#p272453de57)" style="fill: none; stroke: #e1e0d9; stroke-width: 0.8; stroke-linecap: square"/>
     </g>
     <g id="line2d_10"/>
     <g id="text_5">
      <text style="font-size: 10px; font-family: 'Liberation Sans'; text-anchor: middle; fill: #52514e" x="375.84" y="312.800273" transform="rotate(-0 375.84 312.800273)">40%</text>
     </g>
    </g>
    <g id="xtick_6">
     <g id="line2d_11">
      <path d="M 437.4 299.52 
L 437.4 97.344 
" clip-path="url(#p272453de57)" style="fill: none; stroke: #e1e0d9; stroke-width: 0.8; stroke-linecap: square"/>
     </g>
     <g id="line2d_12"/>
     <g id="text_6">
      <text style="font-size: 10px; font-family: 'Liberation Sans'; text-anchor: middle; fill: #52514e" x="437.4" y="312.800273" transform="rotate(-0 437.4 312.800273)">50%</text>
     </g>
    </g>
    <g id="xtick_7">
     <g id="line2d_13">
      <path d="M 498.96 299.52 
L 498.96 97.344 
" clip-path="url(#p272453de57)" style="fill: none; stroke: #e1e0d9; stroke-width: 0.8; stroke-linecap: square"/>
     </g>
     <g id="line2d_14"/>
     <g id="text_7">
      <text style="font-size: 10px; font-family: 'Liberation Sans'; text-anchor: middle; fill: #52514e" x="498.96" y="312.800273" transform="rotate(-0 498.96 312.800273)">60%</text>
     </g>
    </g>
    <g id="xtick_8">
     <g id="line2d_15">
      <path d="M 560.52 299.52 
L 560.52 97.344 
" clip-path="url(#p272453de57)" style="fill: none; stroke: #e1e0d9; stroke-width: 0.8; stroke-linecap: square"/>
     </g>
     <g id="line2d_16"/>
     <g id="text_8">
      <text style="font-size: 10px; font-family: 'Liberation Sans'; text-anchor: middle; fill: #52514e" x="560.52" y="312.800273" transform="rotate(-0 560.52 312.800273)">70%</text>
     </g>
    </g>
    <g id="xtick_9">
     <g id="line2d_17">
      <path d="M 622.08 299.52 
L 622.08 97.344 
" clip-path="url(#p272453de57)" style="fill: none; stroke: #e1e0d9; stroke-width: 0.8; stroke-linecap: square"/>
     </g>
     <g id="line2d_18"/>
     <g id="text_9">
      <text style="font-size: 10px; font-family: 'Liberation Sans'; text-anchor: middle; fill: #52514e" x="622.08" y="312.800273" transform="rotate(-0 622.08 312.800273)">80%</text>
     </g>
    </g>
   </g>
   <g id="matplotlib.axis_2">
    <g id="ytick_1">
     <g id="line2d_19"/>
     <g id="text_10">
      <text style="font-size: 10.5px; font-family: 'Liberation Sans'; fill: #0b0b0b" transform="translate(34.656797 142.779362)">Prisoner's dilemma</text>
      <text style="font-size: 10.5px; font-family: 'Liberation Sans'; fill: #0b0b0b" transform="translate(84.505547 154.207341)">(trained)</text>
     </g>
    </g>
    <g id="ytick_2">
     <g id="line2d_20"/>
     <g id="text_11">
      <text style="font-size: 10.5px; font-family: 'Liberation Sans'; fill: #0b0b0b" transform="translate(63.479297 251.087934)">Public goods</text>
      <text style="font-size: 10.5px; font-family: 'Liberation Sans'; fill: #0b0b0b" transform="translate(55.325391 262.515912)">(never trained)</text>
     </g>
    </g>
   </g>
   <g id="patch_3">
    <path d="M 129.6 299.52 
L 622.08 299.52 
" style="fill: none; stroke: #c3c2b7; stroke-width: 0.8; stroke-linejoin: miter; stroke-linecap: square"/>
   </g>
   <g id="patch_4">
    <path d="M 347.98735 126.226286 
Q 273.343436 126.226286 200.935591 126.226286 
" style="fill: none; stroke: #eb6834; stroke-width: 2; stroke-linecap: round"/>
    <path d="M 206.535591 129.026286 
L 200.935591 126.226286 
L 206.535591 123.426286 
z
" style="fill: #eb6834; stroke: #eb6834; stroke-width: 2; stroke-linecap: round"/>
   </g>
   <g id="text_12">
    <text style="font-size: 9.5px; font-family: 'Liberation Sans'; text-anchor: middle; fill: #0b0b0b" x="196.7004" y="137.7792" transform="rotate(-0 196.7004 137.7792)">11%</text>
   </g>
   <g id="text_13">
    <text style="font-size: 9px; font-family: 'Liberation Sans'; text-anchor: middle; fill: #52514e" x="349.9848" y="137.7792" transform="rotate(-0 349.9848 137.7792)">36%</text>
   </g>
   <g id="patch_5">
    <path d="M 375.992322 162.329143 
Q 465.101967 162.329143 551.975543 162.329143 
" style="fill: none; stroke: #2a78d6; stroke-width: 2; stroke-linecap: round"/>
    <path d="M 546.375543 159.529143 
L 551.975543 162.329143 
L 546.375543 165.129143 
z
" style="fill: #2a78d6; stroke: #2a78d6; stroke-width: 2; stroke-linecap: round"/>
   </g>
   <g id="text_14">
    <text style="font-size: 9.5px; font-family: 'Liberation Sans'; text-anchor: middle; fill: #0b0b0b" x="556.2108" y="173.882057" transform="rotate(-0 556.2108 173.882057)">69%</text>
   </g>
   <g id="text_15">
    <text style="font-size: 9px; font-family: 'Liberation Sans'; text-anchor: middle; fill: #52514e" x="373.9932" y="173.882057" transform="rotate(-0 373.9932 173.882057)">40%</text>
   </g>
   <g id="patch_6">
    <path d="M 359.680613 234.534857 
Q 290.885846 234.534857 224.327147 234.534857 
" style="fill: none; stroke: #eb6834; stroke-width: 2; stroke-linecap: round"/>
    <path d="M 229.927147 237.334857 
L 224.327147 234.534857 
L 229.927147 231.734857 
z
" style="fill: #eb6834; stroke: #eb6834; stroke-width: 2; stroke-linecap: round"/>
   </g>
   <g id="text_16">
    <text style="font-size: 9.5px; font-family: 'Liberation Sans'; text-anchor: middle; fill: #0b0b0b" x="220.0932" y="246.087771" transform="rotate(-0 220.0932 246.087771)">15%</text>
   </g>
   <g id="text_17">
    <text style="font-size: 9px; font-family: 'Liberation Sans'; text-anchor: middle; fill: #52514e" x="361.6812" y="246.087771" transform="rotate(-0 361.6812 246.087771)">38%</text>
   </g>
   <g id="patch_7">
    <path d="M 396.306286 270.637714 
Q 477.721192 270.637714 556.900031 270.637714 
" style="fill: none; stroke: #2a78d6; stroke-width: 2; stroke-linecap: round"/>
    <path d="M 551.300031 267.837714 
L 556.900031 270.637714 
L 551.300031 273.437714 
z
" style="fill: #2a78d6; stroke: #2a78d6; stroke-width: 2; stroke-linecap: round"/>
   </g>
   <g id="text_18">
    <text style="font-size: 9.5px; font-family: 'Liberation Sans'; text-anchor: middle; fill: #0b0b0b" x="561.1356" y="282.190629" transform="rotate(-0 561.1356 282.190629)">70%</text>
   </g>
   <g id="text_19">
    <text style="font-size: 9px; font-family: 'Liberation Sans'; text-anchor: middle; fill: #52514e" x="394.308" y="282.190629" transform="rotate(-0 394.308 282.190629)">43%</text>
   </g>
   <g id="line2d_21">
    <defs>
     <path id="m07040d0663" d="M 0 4 
C 1.060812 4 2.078319 3.578535 2.828427 2.828427 
C 3.578535 2.078319 4 1.060812 4 0 
C 4 -1.060812 3.578535 -2.078319 2.828427 -2.828427 
C 2.078319 -3.578535 1.060812 -4 0 -4 
C -1.060812 -4 -2.078319 -3.578535 -2.828427 -2.828427 
C -3.578535 -2.078319 -4 -1.060812 -4 0 
C -4 1.060812 -3.578535 2.078319 -2.828427 2.828427 
C -2.078319 3.578535 -1.060812 4 0 4 
z
" style="stroke: #ffffff; stroke-width: 1.5"/>
    </defs>
    <g clip-path="url(#p272453de57)">
     <use xlink:href="#m07040d0663" x="349.9848" y="126.226286" style="fill: #898781; stroke: #ffffff; stroke-width: 1.5"/>
    </g>
   </g>
   <g id="line2d_22">
    <g clip-path="url(#p272453de57)">
     <use xlink:href="#m07040d0663" x="373.9932" y="162.329143" style="fill: #898781; stroke: #ffffff; stroke-width: 1.5"/>
    </g>
   </g>
   <g id="line2d_23">
    <g clip-path="url(#p272453de57)">
     <use xlink:href="#m07040d0663" x="361.6812" y="234.534857" style="fill: #898781; stroke: #ffffff; stroke-width: 1.5"/>
    </g>
   </g>
   <g id="line2d_24">
    <g clip-path="url(#p272453de57)">
     <use xlink:href="#m07040d0663" x="394.308" y="270.637714" style="fill: #898781; stroke: #ffffff; stroke-width: 1.5"/>
    </g>
   </g>
  </g>
  <g id="text_20">
   <text style="font-weight: 700; font-size: 14px; font-family: 'Liberation Sans'; text-anchor: start; fill: #0b0b0b" x="12.96" y="23.296383" transform="rotate(-0 12.96 23.296383)">Two grading rules, same prompts, opposite lessons</text>
  </g>
  <g id="text_21">
   <text style="font-size: 10.5px; font-family: 'Liberation Sans'; text-anchor: start; fill: #52514e" x="12.96" y="41.340287" transform="rotate(-0 12.96 41.340287)">Cooperation rate before and after 70 RL steps, partner described as a copy of the model</text>
  </g>
  <g id="text_22">
   <text style="font-size: 8.5px; font-family: 'Liberation Sans'; fill: #898781" transform="translate(12.96 351.161683)">Qwen3.5-9B, one run per arm. Prisoner's dilemma: 16 held-out prompts x 8 samples. Public goods: 8 prompts x 8 samples.</text>
   <text style="font-size: 8.5px; font-family: 'Liberation Sans'; fill: #898781" transform="translate(12.96 363.127259)">The two 'before' points differ only by sampling seed; both arms start from the same weights.</text>
  </g>
  <g id="legend_1">
   <g id="line2d_25">
    <defs>
     <path id="mf92f54a5f8" d="M 0 4 
C 1.060812 4 2.078319 3.578535 2.828427 2.828427 
C 3.578535 2.078319 4 1.060812 4 0 
C 4 -1.060812 3.578535 -2.078319 2.828427 -2.828427 
C 2.078319 -3.578535 1.060812 -4 0 -4 
C -1.060812 -4 -2.078319 -3.578535 -2.828427 -2.828427 
C -3.578535 -2.078319 -4 -1.060812 -4 0 
C -4 1.060812 -3.578535 2.078319 -2.828427 2.828427 
C -2.078319 3.578535 -1.060812 4 0 4 
z
" style="stroke: #898781"/>
    </defs>
    <g>
     <use xlink:href="#mf92f54a5f8" x="30.06" y="71.406246" style="fill: #898781; stroke: #898781"/>
    </g>
   </g>
   <g id="text_23">
    <text style="font-size: 9px; font-family: 'Liberation Sans'; text-anchor: start; fill: #0b0b0b" x="46.26" y="74.556246" transform="rotate(-0 46.26 74.556246)">Before training</text>
   </g>
   <g id="line2d_26">
    <path d="M 122.790937 71.406246 
L 131.790937 71.406246 
L 140.790937 71.406246 
" style="fill: none; stroke: #eb6834; stroke-width: 2; stroke-linecap: square"/>
   </g>
   <g id="text_24">
    <text style="font-size: 9px; font-family: 'Liberation Sans'; text-anchor: start; fill: #0b0b0b" x="147.990938" y="74.556246" transform="rotate(-0 147.990938 74.556246)">After, graded against the group's action mix</text>
   </g>
   <g id="line2d_27">
    <path d="M 338.797969 71.406246 
L 347.797969 71.406246 
L 356.797969 71.406246 
" style="fill: none; stroke: #2a78d6; stroke-width: 2; stroke-linecap: square"/>
   </g>
   <g id="text_25">
    <text style="font-size: 9px; font-family: 'Liberation Sans'; text-anchor: start; fill: #0b0b0b" x="363.997969" y="74.556246" transform="rotate(-0 363.997969 74.556246)">After, graded as if the partner copied the move</text>
   </g>
  </g>
 </g>
 <defs>
  <clipPath id="p272453de57">
   <rect x="129.6" y="97.344" width="492.48" height="202.176"/>
  </clipPath>
 </defs>
</svg>
